HIERARCHY
ROOT Hips
{
  OFFSET 36.3443 98.337 31.0518
  CHANNELS 6 Xposition Yposition Zposition Zrotation Xrotation Yrotation
  JOINT ToSpine
  {
    OFFSET -0.0105055 1.38907 -7.13956
    CHANNELS 3 Zrotation Xrotation Yrotation
    JOINT Spine
    {
      OFFSET 0.0105055 10 1
      CHANNELS 3 Zrotation Xrotation Yrotation
      JOINT Spine1
      {
        OFFSET 0 12 1.60637
        CHANNELS 3 Zrotation Xrotation Yrotation
        JOINT Neck
        {
          OFFSET 0 27 2.26658
          CHANNELS 3 Zrotation Xrotation Yrotation
          JOINT Head
          {
            OFFSET 0 9 2.12705
            CHANNELS 3 Zrotation Xrotation Yrotation
            End Site
            {
              OFFSET 0 11 2
            }
          }
        }
        JOINT LeftShoulder
        {
          OFFSET 8 19.6109 2.86452
          CHANNELS 3 Zrotation Xrotation Yrotation
          JOINT LeftArm
          {
            OFFSET 12 1 0.681055
            CHANNELS 3 Zrotation Xrotation Yrotation
            JOINT LeftForeArm
            {
              OFFSET 19 0 -1.52608
              CHANNELS 3 Zrotation Xrotation Yrotation
              JOINT LeftHand
              {
                OFFSET 23 0 0
                CHANNELS 3 Zrotation Xrotation Yrotation
                End Site
                {
                  OFFSET 10 0 0
                }
              }
            }
          }
        }
        JOINT RightShoulder
        {
          OFFSET -8 19.6109 2.86452
          CHANNELS 3 Zrotation Xrotation Yrotation
          JOINT RightArm
          {
            OFFSET -12 1 0.681055
            CHANNELS 3 Zrotation Xrotation Yrotation
            JOINT RightForeArm
            {
              OFFSET -19 0 -1.52608
              CHANNELS 3 Zrotation Xrotation Yrotation
              JOINT RightHand
              {
                OFFSET -23 0 0
                CHANNELS 3 Zrotation Xrotation Yrotation
                End Site
                {
                  OFFSET -10 0 0
                }
              }
            }
          }
        }
      }
    }
  }
  JOINT LeftUpLeg
  {
    OFFSET 9 -7.17245 0
    CHANNELS 3 Zrotation Xrotation Yrotation
    JOINT LeftLeg
    {
      OFFSET 0 -44.1113 0
      CHANNELS 3 Zrotation Xrotation Yrotation
      JOINT LeftFoot
      {
        OFFSET 0 -36.1829 0
        CHANNELS 3 Zrotation Xrotation Yrotation
        JOINT LeftToeBase
        {
          OFFSET 0 -4.84184 13
          CHANNELS 3 Zrotation Xrotation Yrotation
          End Site
          {
            OFFSET 0 1 6
          }
        }
      }
    }
  }
  JOINT RightUpLeg
  {
    OFFSET -9 -7.17245 0
    CHANNELS 3 Zrotation Xrotation Yrotation
    JOINT RightLeg
    {
      OFFSET 0 -44.0551 0
      CHANNELS 3 Zrotation Xrotation Yrotation
      JOINT RightFoot
      {
        OFFSET 0 -36.1469 0
        CHANNELS 3 Zrotation Xrotation Yrotation
        JOINT RightToeBase
        {
          OFFSET 0 -4.92256 13
          CHANNELS 3 Zrotation Xrotation Yrotation
          End Site
          {
            OFFSET 0 1 6
          }
        }
      }
    }
  }
}
MOTION
Frames:	21
Frame Time:	0.0333333
36.3424 98.3259 31.0612 2.61553 -2.30466 -3.79122 0 0 0 0.449333 3.01068 1.89859 -7.34793 -0.0641613 2.79027 8.10203 -2.99172 -0.65048 -2.84363 4.76763 2.29317 -29.3646 3.05069 -5.09134 -43.7377 25.4548 -14.8968 -5.00899 -8.98177 -4.15652 -8.00295 0.330731 -4.72295 24.4133 4.51114 11.1466 54.4823 16.4496 4.37007 2.50861 0.579402 12.1891 3.44039 0.140857 4.69111 0.182524 -0.0252871 8.57907 -2.39381 15.3563 -7.5694 3.64206 -13.359 0.426927 0.57875 1.83717 -2.7436 -3.52919 3.63505 -7.29326 0.964729 4.13834 -3.76581 -21.0521 -7.03282 -1.30783 3.66887 -13.6302 -1.49128 
36.3591 98.2912 31.074 2.72176 -2.20431 -3.60878 0 0 0 0.162884 2.84821 1.73529 -7.02 -0.00237107 2.55816 7.73793 -2.88467 -0.573607 -2.9119 5.00637 2.29923 -30.0458 3.05624 -4.95032 -42.9924 25.757 -14.8836 -5.02267 -8.99279 -4.22474 -8.35406 0.347096 -4.77265 24.2757 4.60829 11.5196 54.4458 16.3788 4.27157 2.61742 0.553511 11.8778 2.97434 0.12247 4.70938 0.0501237 -0.43933 8.4699 -2.29238 15.966 -7.3627 3.25789 -13.811 0.393248 0.655423 2.15933 -3.09865 -3.6708 3.52438 -7.39593 1.16288 4.08914 -3.8168 -22.0034 -6.6925 -1.30261 3.76848 -14.0167 -2.0859 
36.43 98.283 31.0655 2.93568 -2.01906 -3.04626 0 0 0 -0.626246 2.50354 1.20122 -6.19864 0.253731 1.85557 7.08333 -2.5832 -0.00680489 -2.29263 4.36014 2.51371 -30.9436 2.96831 -4.50816 -42.1181 25.5719 -14.8215 -4.85688 -8.93273 -4.58926 -9.96399 0.352429 -4.03111 24.3776 4.88236 12.3558 53.8264 16.1699 4.2008 2.34729 2.12148 11.4699 2.78406 0.108794 4.47838 -0.290044 -1.17502 8.1202 -1.91569 16.9142 -7.19412 1.95855 -14.5571 0.25089 0.785892 3.24499 -3.74562 -3.9275 3.35984 -7.44457 1.20339 3.91043 -4.70677 -22.5494 -6.45278 -1.28808 3.80331 -14.1499 -1.60615 
36.4502 98.3078 31.1933 3.00758 -2.16857 -3.13369 0 0 0 -0.751857 2.38906 1.3228 -5.95836 0.604022 1.9514 7.03391 -2.57365 -0.100314 -2.55188 4.22806 2.47542 -30.841 3.01084 -4.646 -42.2995 25.7505 -14.8561 -4.90826 -8.9583 -4.65454 -9.79501 0.320548 -3.74345 23.9578 4.70698 11.9928 54.2313 15.9079 4.35054 2.38011 1.99434 11.3442 3.14279 0.123798 4.50528 -0.423762 -0.764215 8.05442 -1.91335 16.5588 -6.97708 1.73928 -14.6076 0.222953 0.825709 3.80856 -3.96349 -4.06344 3.57802 -7.62019 1.21017 3.97673 -4.68057 -22.7153 -6.63303 -1.33278 3.80711 -14.1591 -1.0592 
36.4535 98.4032 31.2669 2.90099 -2.23485 -3.16526 0 0 0 -0.501009 2.41323 1.32041 -6.06408 0.72156 1.98851 7.00844 -2.78064 -0.0147717 -2.34851 4.38369 2.48889 -30.7652 3.01231 -4.66657 -42.3204 25.8981 -14.8374 -4.97935 -8.82143 -4.2953 -9.40393 0.339396 -4.12259 23.9837 4.64268 11.7708 54.2229 15.9744 4.3622 2.40343 2.07344 11.2617 3.41687 0.138233 4.62834 -0.28311 -0.38464 8.15791 -2.03961 16.0752 -7.09605 1.76314 -14.4662 0.223665 0.765175 3.74316 -3.72971 -4.00305 3.75216 -7.76459 1.22232 4.00144 -4.18522 -21.2423 -6.92809 -1.30107 3.45559 -12.8184 -1.39319 
36.3858 98.3396 31.3602 2.94038 -2.14903 -3.30574 0 0 0 -0.590776 2.09613 1.35194 -6.1312 0.952952 2.02358 7.18432 -2.67959 -0.0627365 -2.49459 4.19482 2.53095 -30.7239 3.02476 -4.70924 -42.4077 25.8741 -14.5915 -4.94509 -8.54331 -4.19739 -9.83137 0.359637 -4.18008 24.0644 4.67267 11.8298 54.3115 15.9143 4.30181 2.40359 2.0946 11.2616 3.09097 0.119336 4.42199 -0.179717 -0.508539 8.34959 -2.16409 16.3557 -7.19384 1.65713 -14.732 0.214258 0.688827 3.99475 -3.4775 -4.01875 3.69828 -7.72156 1.31417 3.97675 -4.16485 -21.8759 -6.77906 -1.31163 3.65198 -13.5657 -1.4737 
36.3784 98.2736 31.4259 3.0274 -2.1246 -3.28248 0 0 0 -0.788827 1.9092 1.33835 -5.94258 1.10391 1.96473 6.95218 -2.59063 0.0528371 -2.3184 4.14137 2.53871 -30.8594 3.05683 -4.76612 -42.4744 25.8588 -14.3335 -5.08961 -9.48005 -4.02883 -9.93991 0.370673 -4.25998 23.9924 4.6793 11.8857 54.2979 15.6301 4.26811 2.26249 2.62409 11.1329 3.48671 0.132797 4.36476 -0.260707 -0.586863 8.37632 -2.22126 16.549 -7.21892 2.1612 -14.7043 0.278919 0.82305 3.20085 -3.88162 -4.1376 3.72561 -7.78331 1.3961 3.93554 -4.10255 -22.3398 -6.8777 -1.35894 3.75142 -13.9452 -1.82342 
36.3527 98.291 31.4753 2.85921 -2.03554 -3.30724 0 0 0 -0.480241 1.81959 1.28678 -6.03704 1.11879 1.92177 6.83535 -2.68875 0.189242 -2.21268 4.20206 2.60669 -30.9393 3.0199 -4.64895 -42.4727 26.2318 -14.1871 -5.23898 -9.9303 -4.01806 -10.1514 0.385173 -4.33472 23.9341 4.65649 11.8395 54.2602 15.7557 4.29327 2.26788 2.71807 11.0925 3.68128 0.131827 4.09637 -0.0713823 -0.621028 8.42583 -2.17162 16.5446 -7.36435 2.10636 -14.7941 0.273291 0.656859 3.63971 -3.31574 -3.93015 3.6892 -7.6142 1.22762 3.9757 -4.45587 -21.2066 -7.39258 -1.38605 3.50532 -13.0321 -0.744789 
36.2966 98.3589 31.4943 2.69773 -1.72113 -3.27884 0 0 0 -0.289044 1.42981 1.27093 -5.99508 1.23032 1.91727 6.78008 -2.7791 0.1623 -2.08914 4.3204 2.53029 -30.823 3.00285 -4.62837 -42.6161 26.2985 -14.2055 -5.32629 -9.90412 -3.69216 -10.0946 0.36444 -4.12457 23.9787 4.63558 11.75 54.2315 15.5803 4.31969 2.19741 2.93821 11.0396 3.4902 0.121838 3.99595 0.174269 -0.879712 8.48642 -2.17895 16.4159 -7.30183 1.716 -14.8495 0.223415 0.721514 3.96223 -3.59477 -3.65797 3.3954 -7.4376 1.12417 4.00316 -4.64502 -20.2066 -7.4721 -1.33347 3.32439 -12.3426 -0.927624 
36.3528 98.3672 31.5603 2.82406 -1.83243 -3.26053 0 0 0 -0.311536 1.44457 1.23921 -5.9299 1.33066 1.88271 6.55028 -2.81728 0.193761 -1.87379 4.25796 2.43983 -30.8955 3.00525 -4.61902 -42.978 25.8652 -14.0163 -5.21144 -9.08928 -3.4825 -9.96393 0.36121 -4.14202 23.7267 4.60749 11.7785 54.3769 15.6014 4.37159 2.31199 2.64151 10.9144 3.61028 0.130616 4.14184 -0.0759858 -0.595093 8.30659 -2.11927 16.0937 -7.19603 1.94758 -14.5913 0.248935 0.823783 3.48839 -3.91804 -3.92589 3.52748 -7.72783 1.24991 4.04422 -4.23122 -20.2631 -7.37471 -1.3188 3.36817 -12.4998 -1.04668 
36.2351 98.248 31.5445 2.63768 -1.34234 -3.2431 0 0 0 -0.236908 0.827766 1.2557 -5.9099 1.45687 1.85762 6.79765 -2.78381 -0.0446365 -2.17072 4.33793 2.3557 -31.0901 3.02989 -4.64269 -43.1875 25.3596 -13.802 -5.10202 -8.55867 -3.23769 -9.92085 0.356578 -4.10579 23.6183 4.60635 11.8268 54.408 15.619 4.36774 2.3526 2.43514 10.9495 3.20337 0.1157 4.1373 0.407787 -1.6744 8.637 -2.1599 17.3913 -7.53915 1.70685 -15.386 0.230618 0.748407 3.97889 -3.69761 -3.53274 2.96839 -7.13726 1.21031 4.03719 -4.86647 -21.8064 -7.15416 -1.38005 3.64461 -13.5442 -1.0699 
36.2349 98.3188 31.5893 2.5506 -1.3597 -3.34674 0 0 0 -0.0547622 0.840367 1.28164 -5.86179 1.43182 1.89568 6.53717 -2.86104 0.0864978 -1.56618 4.65465 2.25466 -31.1089 3.01689 -4.6087 -43.2472 25.4919 -13.5725 -5.12358 -8.81815 -3.42636 -9.87556 0.33365 -3.8591 23.5912 4.58638 11.774 54.4123 15.7204 4.36814 2.42563 2.20295 10.9709 3.18035 0.119348 4.29562 0.435239 -1.36044 8.59702 -2.18991 16.8013 -7.37104 1.9672 -14.9675 0.25851 0.821829 3.36202 -3.89651 -3.43721 3.00922 -7.23279 1.21998 4.0732 -4.89261 -20.904 -7.3381 -1.35539 3.39377 -12.6078 -0.863892 
36.268 98.3373 31.6949 2.76533 -1.75423 -3.44625 0 0 0 -0.361529 1.05244 1.37694 -5.57062 1.59026 1.94866 6.41364 -2.8309 0.0482816 -1.72241 4.73427 2.22796 -31.2213 3.01962 -4.60553 -43.1793 25.6681 -13.6059 -5.18389 -8.79115 -3.26804 -10.1227 0.367527 -4.14852 23.4812 4.55488 11.7229 54.4644 15.7599 4.40076 2.46207 2.00403 10.961 3.16977 0.120514 4.36252 0.0538359 -0.599637 8.43594 -2.16111 16.1864 -7.12697 1.91932 -14.749 0.248426 0.741633 3.44249 -3.60536 -3.86318 3.47019 -7.70884 1.39971 4.19109 -4.12215 -20.7616 -7.52588 -1.38054 3.35995 -12.4687 -1.05371 
36.2534 98.2958 31.7239 2.91629 -1.78263 -3.42299 0 0 0 -0.593754 0.942794 1.36368 -5.46794 1.70357 1.91235 6.70989 -2.68728 0.0137824 -2.33407 4.61197 2.43973 -31.2897 3.02686 -4.59089 -43.1295 25.8695 -13.4926 -5.17001 -8.74365 -3.49379 -10.1236 0.351218 -3.96366 23.6567 4.597 11.7775 54.2836 15.8415 4.48265 2.55882 1.53956 11.0023 2.73562 0.107576 4.51075 -0.0772014 -0.626861 8.42388 -2.19851 16.3352 -7.1959 1.89597 -14.8081 0.246524 0.688852 3.34992 -3.39452 -3.99021 3.48784 -7.7268 1.42478 4.19667 -4.12241 -21.571 -7.29975 -1.39233 3.56265 -13.2273 -1.43553 
36.2 98.2565 31.6908 2.78239 -1.42127 -3.47295 0 0 0 -0.337697 0.562704 1.37658 -5.58516 1.66184 1.92909 7.12013 -1.9166 -0.233609 -3.30375 3.49025 2.58613 -31.6839 3.03598 -4.53189 -42.7477 26.1474 -13.297 -5.16925 -9.33459 -3.90921 -10.1089 0.332095 -3.75363 23.6778 4.64275 11.9177 54.0785 15.7588 4.33333 2.19298 2.67711 11.2662 3.3847 0.127286 4.30062 0.204031 -1.31331 8.58319 -2.22463 17.0071 -7.32935 2.01905 -15.0993 0.267691 0.751867 3.3272 -3.62871 -3.78105 3.0567 -7.46336 1.4307 4.18594 -4.35348 -21.793 -7.23342 -1.39328 3.60113 -13.3698 -1.43777 
36.2146 98.2977 31.7755 2.98777 -1.85256 -3.44364 0 0 0 -0.495283 0.870698 1.37073 -5.5911 1.6903 1.93678 7.26402 -1.50083 -0.32415 -3.55003 3.05849 2.61413 -31.6605 3.04128 -4.55095 -43.1346 24.7543 -13.4274 -4.90902 -8.02442 -3.07035 -10.0415 0.34013 -3.86987 23.7781 4.70631 12.0775 54.1026 15.7238 4.14504 2.17282 2.44585 11.4933 3.46599 0.133936 4.42298 -0.0919375 -0.495097 8.47061 -2.25213 16.3142 -7.20345 1.78273 -14.8792 0.232728 0.780466 3.58435 -3.76891 -4.09871 3.57989 -7.85273 1.37949 4.23353 -4.17557 -20.8179 -7.78356 -1.43269 3.38366 -12.5896 -0.50383 
36.1463 98.2869 31.7218 2.7321 -1.42309 -3.40045 0 0 0 0.0536918 0.383901 1.36125 -6.06692 1.73052 2.00566 7.70271 -1.32091 -0.391795 -3.88757 2.9007 2.76372 -31.3382 3.04606 -4.63252 -43.3414 24.3873 -13.5255 -4.8099 -7.75197 -2.9128 -10.0637 0.344909 -3.91537 24.1005 4.7545 12.0779 53.8439 15.82 4.0665 2.10551 2.3851 11.7893 3.15847 0.119233 4.32332 0.305828 -1.19792 8.60239 -2.22772 16.8098 -7.35286 1.78661 -15.124 0.237199 0.833196 3.7749 -3.98764 -3.65985 3.08572 -7.411 1.34132 4.24273 -4.65912 -21.2506 -7.40854 -1.39042 3.52048 -13.068 -0.94253 
36.1136 98.228 31.7615 2.98301 -1.66959 -3.26696 0 0 0 -0.245834 0.447687 1.31961 -6.14717 1.88303 1.97452 7.81505 -1.44887 -0.388226 -3.54178 3.20325 2.70856 -30.8955 3.02232 -4.66505 -43.8178 23.8881 -13.6419 -4.68784 -6.95407 -2.79695 -9.82427 0.338948 -3.94232 24.359 4.80512 12.1167 53.6683 15.9595 4.15836 2.27674 1.90784 11.7081 3.11718 0.119689 4.39726 0.0417454 -0.935843 8.51556 -2.20222 16.8195 -7.45892 1.88393 -15.128 0.250051 0.822039 3.60453 -3.92679 -3.91944 3.39045 -7.57006 1.42558 4.21083 -4.37256 -22.5779 -7.16509 -1.43099 3.77066 -14.0148 -1.88567 
36.0727 98.2727 31.7252 2.72283 -1.34149 -3.27827 0 0 0 0.30548 0.0892748 1.31281 -6.50149 1.88355 2.03872 7.3783 -2.10326 -0.239852 -2.24067 4.53299 2.38868 -30.7576 3.01239 -4.66856 -43.8736 23.8114 -13.7117 -4.64423 -6.78776 -2.80704 -9.83346 0.36438 -4.2338 24.5238 4.83224 12.1245 53.6584 15.8381 4.21707 2.35787 1.61359 11.617 2.86979 0.111115 4.43584 0.400818 -1.30035 8.6296 -2.22141 16.8587 -7.45708 1.64176 -15.2989 0.220425 0.879142 3.87552 -4.16964 -3.54716 3.0115 -7.26481 1.17813 4.20491 -5.07516 -21.0303 -7.67175 -1.42661 3.43317 -12.7848 -0.256962 
36.084 98.2688 31.7479 2.84631 -1.60351 -3.13114 0 0 0 0.119556 0.294009 1.29983 -6.32263 1.87566 1.98432 7.43219 -1.69533 -0.291939 -2.76457 3.83916 2.50078 -31.089 3.02315 -4.62502 -43.5756 23.8873 -13.7219 -4.56952 -6.53003 -3.03585 -9.85383 0.353252 -4.09635 24.2883 4.78512 12.0861 53.8271 15.7689 4.27197 2.35875 1.72611 11.4727 2.97503 0.117695 4.49278 0.236251 -0.962094 8.6016 -2.25946 16.704 -7.57849 1.9145 -14.9922 0.252252 0.811575 3.51833 -3.87576 -3.74406 3.36397 -7.50907 1.29937 4.14935 -5.01545 -21.2475 -7.62234 -1.43172 3.49559 -13.0114 -0.241698 
36.1095 98.3104 31.831 3.02448 -2.10753 -3.14286 0 0 0 -0.32577 0.490322 1.45374 -5.83301 2.21182 2.07586 7.104 -1.95647 -0.210162 -2.28098 4.32654 2.35698 -31.2595 3.06212 -4.69243 -43.1877 24.3887 -13.9877 -4.65998 -6.99657 -3.2403 -9.93872 0.329766 -3.79057 24.172 4.74514 12.0132 53.8999 15.6898 4.20131 2.32495 1.69606 11.5659 2.84923 0.116836 4.53216 -0.128739 -0.010871 8.37352 -2.12698 15.8758 -7.4552 1.64577 -14.7451 0.213165 0.725992 3.65732 -3.57447 -4.05259 3.97227 -7.93596 1.44447 4.19511 -4.30302 -21.0937 -7.64526 -1.42457 3.46034 -12.8458 -0.966882 
